<?xml version="1.0" standalone="no"?>
<!DOCTYPE svg PUBLIC "-//W3C//DTD SVG 20010904//EN"
 "http://www.w3.org/TR/2001/REC-SVG-20010904/DTD/svg10.dtd">
<svg version="1.0" xmlns="http://www.w3.org/2000/svg"
 width="330.000000pt" height="150.000000pt" viewBox="0 0 330.000000 150.000000"
 preserveAspectRatio="xMidYMid meet">

<g transform="translate(0.000000,150.000000) scale(0.100000,-0.100000)"
fill="#000000" stroke="none">
<path d="M252 1052 c-9 -7 -12 -53 -10 -198 l3 -189 117 -3 117 -3 -15 -41
c-8 -23 -12 -48 -10 -55 5 -13 97 -19 109 -7 3 3 -1 24 -9 46 -8 22 -14 44
-14 49 0 5 29 9 65 9 l65 0 0 45 0 45 -195 0 -195 0 0 135 0 135 225 0 c193 0
225 -2 225 -15 0 -8 9 -15 21 -15 17 0 20 5 17 33 l-3 32 -250 2 c-137 2 -256
-1 -263 -5z"/>
<path d="M710 735 l0 -226 108 3 107 3 0 220 0 220 -107 3 -108 3 0 -226z
m190 160 c0 -25 -1 -25 -85 -25 -84 0 -85 0 -85 25 0 25 1 25 85 25 84 0 85 0
85 -25z m0 -85 c0 -6 -35 -10 -85 -10 -50 0 -85 4 -85 10 0 6 35 10 85 10 50
0 85 -4 85 -10z m-60 -220 c0 -10 -6 -20 -12 -23 -21 -7 -38 4 -38 23 0 10 6
20 13 23 20 7 37 -4 37 -23z"/>
<path d="M2114 929 c-10 -17 13 -36 27 -22 12 12 4 33 -11 33 -5 0 -12 -5 -16
-11z"/>
<path d="M1190 905 c0 -8 5 -15 10 -15 6 0 10 -32 10 -75 0 -43 -4 -75 -10
-75 -5 0 -10 -7 -10 -15 0 -10 11 -15 35 -15 24 0 35 5 35 15 0 8 -7 15 -15
15 -12 0 -15 15 -15 75 0 43 4 75 10 75 6 0 10 7 10 15 0 10 -10 15 -30 15
-20 0 -30 -5 -30 -15z"/>
<path d="M2473 900 c-3 -11 -9 -20 -14 -20 -5 0 -9 -7 -9 -15 0 -8 5 -15 10
-15 6 0 10 -24 10 -53 0 -58 22 -92 56 -85 29 5 29 28 0 28 -25 0 -26 3 -26
55 0 48 2 55 20 55 11 0 20 7 20 15 0 8 -9 15 -20 15 -13 0 -20 7 -20 20 0 11
-5 20 -11 20 -6 0 -13 -9 -16 -20z"/>
<path d="M1300 864 c0 -8 5 -14 10 -14 6 0 10 -25 10 -55 0 -30 -4 -55 -10
-55 -5 0 -10 -7 -10 -15 0 -10 11 -15 35 -15 24 0 35 5 35 15 0 8 -4 15 -10
15 -5 0 -10 22 -10 50 0 44 3 50 24 56 53 13 61 4 60 -69 l-1 -67 29 0 c18 0
28 5 28 15 0 8 -4 15 -10 15 -5 0 -10 22 -10 49 0 52 8 61 55 61 32 0 45 -27
45 -89 0 -44 3 -51 20 -51 11 0 20 7 20 15 0 8 -4 15 -10 15 -5 0 -10 25 -10
55 0 47 -3 57 -25 71 -17 11 -34 14 -53 9 -29 -7 -30 -7 -139 -1 -57 3 -73 1
-73 -10z"/>
<path d="M1650 864 c0 -8 5 -14 10 -14 6 0 10 -35 10 -85 0 -50 -4 -85 -10
-85 -5 0 -10 -7 -10 -15 0 -11 11 -15 40 -15 29 0 40 4 40 15 0 8 -7 15 -15
15 -8 0 -15 9 -15 20 0 17 4 19 25 14 31 -8 82 12 95 37 17 31 12 84 -11 105
-27 24 -159 31 -159 8z m147 -40 c15 -24 15 -29 2 -53 -16 -28 -37 -36 -75
-27 -21 6 -24 12 -24 50 0 51 4 56 46 56 25 0 38 -7 51 -26z"/>
<path d="M1890 865 c0 -8 5 -15 10 -15 6 0 10 -25 10 -55 0 -30 -4 -55 -10
-55 -5 0 -10 -7 -10 -15 0 -10 11 -15 35 -15 24 0 35 5 35 15 0 8 -7 15 -15
15 -24 0 -21 86 4 100 29 15 68 12 75 -5 9 -24 26 -17 26 10 0 31 -35 42 -82
26 -22 -8 -34 -8 -36 -1 -6 16 -42 12 -42 -5z"/>
<path d="M2100 865 c0 -8 5 -15 10 -15 6 0 10 -25 10 -55 0 -30 -4 -55 -10
-55 -5 0 -10 -7 -10 -15 0 -10 11 -15 35 -15 24 0 35 5 35 15 0 8 -7 15 -15
15 -12 0 -15 14 -15 70 0 63 -2 70 -20 70 -11 0 -20 -7 -20 -15z"/>
<path d="M2220 864 c0 -7 5 -16 10 -19 6 -3 10 -28 10 -56 0 -27 -4 -49 -10
-49 -5 0 -10 -7 -10 -15 0 -10 11 -15 35 -15 24 0 35 5 35 15 0 8 -7 15 -15
15 -11 0 -15 11 -15 43 0 52 13 67 57 67 40 0 53 -21 53 -89 0 -44 3 -51 20
-51 11 0 20 7 20 15 0 8 -4 15 -10 15 -5 0 -10 24 -10 54 0 37 -5 58 -16 67
-23 19 -154 22 -154 3z"/>
<path d="M2630 852 c-35 -36 -38 -69 -10 -105 24 -31 74 -43 113 -28 40 16 25
29 -26 24 -33 -4 -48 -1 -62 13 -18 19 -17 19 53 22 71 3 72 3 72 31 0 35 -27
60 -73 68 -31 5 -40 1 -67 -25z m98 -14 c22 -22 12 -28 -45 -28 -55 0 -56 0
-38 20 20 22 64 27 83 8z"/>
<path d="M2874 870 c-28 -11 -54 -48 -54 -76 0 -55 74 -97 133 -75 43 17 33
31 -18 24 -36 -4 -50 -2 -65 12 -25 23 -26 57 -2 78 23 21 78 22 86 2 8 -22
26 -18 26 5 0 33 -59 49 -106 30z"/>
</g>
</svg>
